<svg xmlns="http://www.w3.org/2000/svg" xmlns:xlink="http://www.w3.org/1999/xlink" width="512" zoomAndPan="magnify" viewBox="0 0 384 383.999986" height="512" preserveAspectRatio="xMidYMid meet" version="1.0"><defs><clipPath id="80f424cf59"><path d="M 21.167969 44.464844 L 362.859375 44.464844 L 362.859375 339.484375 L 21.167969 339.484375 Z M 21.167969 44.464844 " clip-rule="nonzero"/></clipPath><clipPath id="6edabfce68"><path d="M 362.257812 191.929688 L 277.101562 339.394531 L 106.8125 339.394531 L 21.65625 191.929688 L 106.8125 44.464844 L 277.125 44.464844 Z M 362.257812 191.929688 " clip-rule="nonzero"/></clipPath></defs><g clip-path="url(#80f424cf59)"><g clip-path="url(#6edabfce68)"><path fill="#ffd51e" d="M 21.65625 44.464844 L 21.65625 339.394531 L 362.257812 339.394531 L 362.257812 44.464844 Z M 21.65625 44.464844 " fill-opacity="1" fill-rule="nonzero"/></g></g><path stroke-linecap="butt" transform="matrix(1.682072, 0, 0, 1.666781, 100.986818, 188.534339)" fill="none" stroke-linejoin="miter" d="M 0.000870144 1.999572 L 54.511849 1.999572 " stroke="#000000" stroke-width="4" stroke-opacity="1" stroke-miterlimit="4"/><path stroke-linecap="butt" transform="matrix(0.000000000000000102, 1.669937, -1.666781, 0.000000000000000102, 104.308593, 83.481416)" fill="none" stroke-linejoin="miter" d="M -0.000567112 1.999081 L 123.780762 1.999081 " stroke="#000000" stroke-width="4" stroke-opacity="1" stroke-miterlimit="4"/><path stroke-linecap="butt" transform="matrix(1.664231, 0, 0, 1.666781, 100.986818, 79.938606)" fill="none" stroke-linejoin="miter" d="M 0.000879472 2.000762 L 102.168927 2.000762 " stroke="#000000" stroke-width="4" stroke-opacity="1" stroke-miterlimit="4"/><path stroke-linecap="butt" transform="matrix(1.663171, 0, 0, 1.666781, 100.986818, 285.504352)" fill="none" stroke-linejoin="miter" d="M 0.000880032 2.001158 L 108.237248 2.001158 " stroke="#000000" stroke-width="4" stroke-opacity="1" stroke-miterlimit="4"/><path stroke-linecap="butt" transform="matrix(-0.981305, 1.343804, -1.346081, -0.982967, 276.259848, 81.91221)" fill="none" stroke-linejoin="miter" d="M -0.0000131788 2.000961 L 83.15313 2.000275 " stroke="#000000" stroke-width="4" stroke-opacity="1" stroke-miterlimit="4"/><path stroke-linecap="butt" transform="matrix(-1.113209, -1.252086, 1.245647, -1.107484, 276.393677, 291.990622)" fill="none" stroke-linejoin="miter" d="M -0.00144731 2.00011 L 78.6059 1.998986 " stroke="#000000" stroke-width="4" stroke-opacity="1" stroke-miterlimit="4"/></svg>