<svg xmlns="http://www.w3.org/2000/svg" xmlns:xlink="http://www.w3.org/1999/xlink" width="512" zoomAndPan="magnify" viewBox="0 0 384 233.999995" height="312" preserveAspectRatio="xMidYMid meet" version="1.0"><defs><g/><clipPath id="c2acc36130"><path d="M 29.226562 86.65625 L 99.566406 86.65625 L 99.566406 147.386719 L 29.226562 147.386719 Z M 29.226562 86.65625 " clip-rule="nonzero"/></clipPath><clipPath id="6bd2ab5374"><path d="M 99.445312 117.011719 L 81.914062 147.371094 L 46.859375 147.371094 L 29.328125 117.011719 L 46.859375 86.65625 L 81.917969 86.65625 Z M 99.445312 117.011719 " clip-rule="nonzero"/></clipPath></defs><g clip-path="url(#c2acc36130)"><g clip-path="url(#6bd2ab5374)"><path fill="#ffd51e" d="M 29.328125 86.65625 L 29.328125 147.371094 L 99.445312 147.371094 L 99.445312 86.65625 Z M 29.328125 86.65625 " fill-opacity="1" fill-rule="nonzero"/></g></g><path stroke-linecap="butt" transform="matrix(0.346268, 0, 0, 0.343121, 45.65884, 116.313751)" fill="none" stroke-linejoin="miter" d="M 0.00380178 2.000023 L 54.51353 2.000023 " stroke="#000000" stroke-width="4" stroke-opacity="1" stroke-miterlimit="4"/><path stroke-linecap="butt" transform="matrix(0.000000000000000021, 0.34377, -0.343121, 0.000000000000000021, 46.342655, 94.687744)" fill="none" stroke-linejoin="miter" d="M -0.000708351 2.000477 L 123.776059 2.000477 " stroke="#000000" stroke-width="4" stroke-opacity="1" stroke-miterlimit="4"/><path stroke-linecap="butt" transform="matrix(0.342596, 0, 0, 0.343121, 45.65884, 93.95842)" fill="none" stroke-linejoin="miter" d="M 0.00384254 1.999623 L 102.165056 1.999623 " stroke="#000000" stroke-width="4" stroke-opacity="1" stroke-miterlimit="4"/><path stroke-linecap="butt" transform="matrix(0.342378, 0, 0, 0.343121, 45.65884, 136.275841)" fill="none" stroke-linejoin="miter" d="M 0.00384499 1.996665 L 108.231402 1.996665 " stroke="#000000" stroke-width="4" stroke-opacity="1" stroke-miterlimit="4"/><path stroke-linecap="butt" transform="matrix(-0.20201, 0.276633, -0.277102, -0.202352, 81.740243, 94.364701)" fill="none" stroke-linejoin="miter" d="M -0.000297592 1.994946 L 83.151214 2.007103 " stroke="#000000" stroke-width="4" stroke-opacity="1" stroke-miterlimit="4"/><path stroke-linecap="butt" transform="matrix(-0.229163, -0.257752, 0.256427, -0.227985, 81.76779, 137.61109)" fill="none" stroke-linejoin="miter" d="M -0.00361512 1.999134 L 78.60812 1.996395 " stroke="#000000" stroke-width="4" stroke-opacity="1" stroke-miterlimit="4"/><path stroke-linecap="butt" transform="matrix(0.75, 0, 0, 0.75, 110.297114, 77.999995)" fill="none" stroke-linejoin="miter" d="M 3.900723 18.036466 L 21.244474 18.036466 C 25.911141 18.036466 29.296558 19.177091 31.405933 21.458341 C 33.515308 23.734383 34.5726 27.458342 34.5726 32.6198 L 34.5726 35.458342 C 34.5726 41.567718 32.390308 45.213551 28.025725 46.401051 C 30.702808 47.09376 32.588225 48.703135 33.681975 51.239593 C 34.770517 53.770843 35.317392 57.119802 35.317392 61.291677 C 35.317392 68.093761 34.296558 73.244803 32.2601 76.744803 C 30.223642 80.250012 26.551766 82.000012 21.244474 82.000012 L 3.900723 82.000012 Z M 19.004891 42.093759 C 20.098641 42.093759 20.843433 41.682301 21.244474 40.854176 C 21.645516 40.031259 21.843433 38.880218 21.843433 37.401051 L 21.843433 30.984384 C 21.843433 28.90105 20.921558 27.854175 19.077807 27.854175 L 16.405932 27.854175 L 16.405932 42.093759 Z M 17.661141 70.765636 C 20.994474 70.765636 22.661141 69.171886 22.661141 65.984386 L 22.661141 58.020844 C 22.661141 56.078135 22.374683 54.619802 21.806974 53.635427 C 21.239266 52.645843 20.234058 52.145843 18.791349 52.145843 L 16.405932 52.145843 L 16.405932 70.671886 Z M 54.603851 82.59897 C 48.994476 82.59897 44.968434 81.062512 42.530934 77.984387 C 40.109059 74.901053 38.895517 70.307303 38.895517 64.203136 L 38.895517 42.312509 C 38.895517 37.291676 40.333017 33.468759 43.208017 30.83855 C 46.088226 28.208342 50.114268 26.890633 55.275726 26.890633 C 65.749685 26.890633 70.984061 32.031259 70.984061 42.312509 L 70.984061 46.255218 C 70.984061 50.229177 70.937186 53.453135 70.843436 55.927094 L 51.931976 55.927094 L 51.931976 66.510428 C 51.931976 68.401053 52.124685 69.88022 52.51531 70.947928 C 52.916351 72.010428 53.76531 72.546886 55.062185 72.546886 C 56.051768 72.546886 56.754893 72.250011 57.166352 71.656261 C 57.593435 71.062511 57.843435 70.38022 57.916352 69.619803 C 57.989268 68.843761 58.025727 67.708344 58.025727 66.218761 L 58.025727 60.927094 L 70.984061 60.927094 L 70.984061 64.057302 C 70.984061 70.406261 69.754894 75.083345 67.296561 78.088553 C 64.848644 81.09897 60.619477 82.59897 54.603851 82.59897 Z M 58.025727 49.453135 L 58.025727 42.458343 C 58.025727 38.531259 57.062185 36.567717 55.129893 36.567717 C 52.937185 36.567717 51.843435 38.531259 51.843435 42.458343 L 51.843435 49.453135 Z M 90.947604 82.59897 C 85.33302 82.59897 81.312186 81.062512 78.874686 77.984387 C 76.447603 74.901053 75.239269 70.307303 75.239269 64.203136 L 75.239269 42.312509 C 75.239269 37.291676 76.671561 33.468759 79.546561 30.83855 C 82.431978 28.208342 86.452812 26.890633 91.619479 26.890633 C 102.093438 26.890633 107.327813 32.031259 107.327813 42.312509 L 107.327813 46.255218 C 107.327813 50.229177 107.280938 53.453135 107.18198 55.927094 L 88.275729 55.927094 L 88.275729 66.510428 C 88.275729 68.401053 88.468437 69.88022 88.853854 70.947928 C 89.254895 72.010428 90.103854 72.546886 91.400729 72.546886 C 92.395521 72.546886 93.098646 72.250011 93.510104 71.656261 C 93.931979 71.062511 94.181979 70.38022 94.254896 69.619803 C 94.327812 68.843761 94.364271 67.708344 94.364271 66.218761 L 94.364271 60.927094 L 107.327813 60.927094 L 107.327813 64.057302 C 107.327813 70.406261 106.098646 75.083345 103.635105 78.088553 C 101.187188 81.09897 96.958021 82.59897 90.947604 82.59897 Z M 94.364271 49.453135 L 94.364271 42.458343 C 94.364271 38.531259 93.400729 36.567717 91.473645 36.567717 C 89.280937 36.567717 88.181979 38.531259 88.181979 42.458343 L 88.181979 49.453135 Z M 112.249688 18.036466 L 129.59344 18.036466 C 134.260107 18.036466 137.650732 19.177091 139.760107 21.458341 C 141.869482 23.734383 142.921565 27.458342 142.921565 32.6198 L 142.921565 35.458342 C 142.921565 41.567718 140.739274 45.213551 136.379898 46.401051 C 139.056982 47.09376 140.942399 48.703135 142.03094 51.239593 C 143.12469 53.770843 143.666357 57.119802 143.666357 61.291677 C 143.666357 68.093761 142.650732 73.244803 140.614274 76.744803 C 138.577815 80.250012 134.90594 82.000012 129.59344 82.000012 L 112.249688 82.000012 Z M 127.359064 42.093759 C 128.452815 42.093759 129.197606 41.682301 129.59344 40.854176 C 129.994481 40.031259 130.197606 38.880218 130.197606 37.401051 L 130.197606 30.984384 C 130.197606 28.90105 129.275731 27.854175 127.431981 27.854175 L 124.760106 27.854175 L 124.760106 42.093759 Z M 126.015314 70.765636 C 129.348648 70.765636 131.015315 69.171886 131.015315 65.984386 L 131.015315 58.020844 C 131.015315 56.078135 130.728856 54.619802 130.161148 53.635427 C 129.588231 52.645843 128.583023 52.145843 127.140314 52.145843 L 124.760106 52.145843 L 124.760106 70.671886 Z M 162.958025 82.59897 C 157.343441 82.59897 153.322608 81.062512 150.885108 77.984387 C 148.463232 74.901053 147.249691 70.307303 147.249691 64.203136 L 147.249691 42.312509 C 147.249691 37.291676 148.687191 33.468759 151.556983 30.83855 C 154.4424 28.208342 158.468441 26.890633 163.6299 26.890633 C 174.103859 26.890633 179.338234 32.031259 179.338234 42.312509 L 179.338234 46.255218 C 179.338234 50.229177 179.291359 53.453135 179.192401 55.927094 L 160.28615 55.927094 L 160.28615 66.510428 C 160.28615 68.401053 160.478858 69.88022 160.864275 70.947928 C 161.265317 72.010428 162.114275 72.546886 163.41115 72.546886 C 164.405942 72.546886 165.109067 72.250011 165.520525 71.656261 C 165.947609 71.062511 166.1924 70.38022 166.265317 69.619803 C 166.338234 68.843761 166.374692 67.708344 166.374692 66.218761 L 166.374692 60.927094 L 179.338234 60.927094 L 179.338234 64.057302 C 179.338234 70.406261 178.109068 75.083345 175.645526 78.088553 C 173.197609 81.09897 168.968442 82.59897 162.958025 82.59897 Z M 166.374692 49.453135 L 166.374692 42.458343 C 166.374692 38.531259 165.41115 36.567717 163.484067 36.567717 C 161.291358 36.567717 160.1924 38.531259 160.1924 42.458343 L 160.1924 49.453135 Z M 199.296569 82.59897 C 193.687194 82.59897 189.661152 81.062512 187.223652 77.984387 C 184.801776 74.901053 183.588235 70.307303 183.588235 64.203136 L 183.588235 42.312509 C 183.588235 37.291676 185.025735 33.468759 187.900735 30.83855 C 190.780944 28.208342 194.806985 26.890633 199.968444 26.890633 C 210.442403 26.890633 215.676778 32.031259 215.676778 42.312509 L 215.676778 46.255218 C 215.676778 50.229177 215.629903 53.453135 215.536153 55.927094 L 196.624694 55.927094 L 196.624694 66.510428 C 196.624694 68.401053 196.817402 69.88022 197.208027 70.947928 C 197.609069 72.010428 198.458027 72.546886 199.754902 72.546886 C 200.744486 72.546886 201.447611 72.250011 201.864278 71.656261 C 202.286153 71.062511 202.536153 70.38022 202.609069 69.619803 C 202.681986 68.843761 202.718444 67.708344 202.718444 66.218761 L 202.718444 60.927094 L 215.676778 60.927094 L 215.676778 64.057302 C 215.676778 70.406261 214.447612 75.083345 211.989278 78.088553 C 209.541361 81.09897 205.312194 82.59897 199.296569 82.59897 Z M 202.718444 49.453135 L 202.718444 42.458343 C 202.718444 38.531259 201.754903 36.567717 199.827819 36.567717 C 197.629902 36.567717 196.536152 38.531259 196.536152 42.458343 L 196.536152 49.453135 Z M 235.786155 82.59897 C 229.978863 82.59897 225.786154 81.16147 223.202821 78.291678 C 220.619487 75.406262 219.333029 70.760428 219.333029 64.343761 L 219.333029 58.09376 L 231.911155 58.09376 L 231.911155 66.057303 C 231.911155 69.244803 232.931988 70.838553 234.968446 70.838553 C 236.103863 70.838553 236.900738 70.50522 237.348655 69.838553 C 237.796572 69.156261 238.02053 68.026053 238.02053 66.437511 C 238.02053 64.354177 237.77053 62.630219 237.275738 61.276052 C 236.775738 59.906261 236.140321 58.760427 235.36428 57.838552 C 234.603863 56.916677 233.228863 55.484385 231.239279 53.546885 L 225.728862 48.036468 C 221.463237 43.869801 219.333029 39.250009 219.333029 34.182301 C 219.333029 28.729175 220.583029 24.578133 223.093446 21.729175 C 225.603862 18.8698 229.265321 17.437508 234.077821 17.437508 C 239.83303 17.437508 243.978864 18.96355 246.510114 22.020841 C 249.046572 25.072925 250.312197 29.848967 250.312197 36.348967 L 237.275738 36.348967 L 237.202822 31.947925 C 237.202822 31.109384 236.968447 30.442717 236.494488 29.947925 C 236.02053 29.447925 235.36428 29.203134 234.530946 29.203134 C 233.536155 29.203134 232.791363 29.473967 232.291363 30.020842 C 231.796571 30.567717 231.546571 31.312509 231.546571 32.255217 C 231.546571 34.338551 232.734071 36.500009 235.11428 38.729176 L 242.567405 45.87501 C 244.30178 47.572926 245.734072 49.177093 246.874697 50.692718 C 248.025739 52.208343 248.947614 53.994802 249.640322 56.057302 C 250.327822 58.114594 250.676781 60.557302 250.676781 63.380219 C 250.676781 69.687511 249.525739 74.468761 247.218447 77.729178 C 244.916364 80.97397 241.103863 82.59897 235.786155 82.59897 Z M 270.567407 82.59897 C 259.697615 82.59897 254.260114 76.963553 254.260114 65.692719 L 254.260114 43.802093 C 254.260114 38.635426 255.708031 34.531259 258.603865 31.473967 C 261.515323 28.421884 265.504907 26.890633 270.567407 26.890633 C 275.635116 26.890633 279.619491 28.421884 282.515324 31.473967 C 285.421575 34.531259 286.879908 38.635426 286.879908 43.802093 L 286.879908 65.692719 C 286.879908 76.963553 281.442408 82.59897 270.567407 82.59897 Z M 270.567407 72.546886 C 271.609074 72.546886 272.379907 72.177095 272.879907 71.437511 C 273.374699 70.687511 273.624699 69.66147 273.624699 68.364594 L 273.624699 41.708343 C 273.624699 38.536468 272.603865 36.947926 270.567407 36.947926 C 268.530949 36.947926 267.515323 38.536468 267.515323 41.708343 L 267.515323 68.364594 C 267.515323 69.66147 267.765323 70.687511 268.260115 71.437511 C 268.754907 72.177095 269.52574 72.546886 270.567407 72.546886 Z M 292.90595 39.781259 L 290.598658 39.781259 L 290.671575 29.875009 L 292.90595 29.875009 L 292.90595 26.145842 C 292.90595 20.291675 295.833034 17.364591 301.687201 17.364591 C 304.478868 17.364591 306.713243 17.713549 308.400743 18.40105 L 308.400743 26.437508 C 307.900743 26.291675 307.499701 26.218758 307.197618 26.218758 C 306.504909 26.218758 306.056993 26.468758 305.853868 26.96355 C 305.661159 27.46355 305.562201 28.208342 305.562201 29.203134 L 305.562201 29.875009 L 308.400743 29.875009 L 308.400743 39.927093 L 305.869493 39.927093 L 305.869493 82.000012 L 292.90595 82.000012 Z M 323.812202 82.59897 C 320.385119 82.59897 318.020535 81.88022 316.72366 80.437512 C 315.437202 78.994803 314.796577 76.687512 314.796577 73.510428 L 314.796577 39.473968 L 311.16116 39.473968 L 311.16116 29.567717 L 314.796577 29.567717 L 314.796577 18.036466 L 327.468452 18.036466 L 327.468452 29.567717 L 331.176786 29.567717 L 331.176786 39.473968 L 327.468452 39.473968 L 327.468452 70.093761 C 327.468452 71.026053 327.541369 71.713553 327.687202 72.16147 C 327.833036 72.614595 328.223661 72.838553 328.869494 72.838553 C 329.364286 72.838553 329.838244 72.812511 330.286161 72.765636 C 330.734078 72.713553 331.030953 72.69272 331.176786 72.69272 L 331.176786 81.635429 C 330.437203 81.828137 329.359077 82.03647 327.942411 82.25522 C 326.520536 82.484387 325.145536 82.59897 323.812202 82.59897 Z M 323.812202 82.59897 " stroke="#ffd51e" stroke-width="5.585265" stroke-opacity="1" stroke-miterlimit="4"/><g fill="#000000" fill-opacity="1"><g transform="translate(111.093989, 139.499991)"><g><path d="M 2.125 -47.984375 L 15.140625 -47.984375 C 18.640625 -47.984375 21.179688 -47.125 22.765625 -45.40625 C 24.347656 -43.695312 25.140625 -40.90625 25.140625 -37.03125 L 25.140625 -34.90625 C 25.140625 -30.332031 23.5 -27.597656 20.21875 -26.703125 C 22.226562 -26.179688 23.640625 -24.96875 24.453125 -23.0625 C 25.273438 -21.164062 25.6875 -18.65625 25.6875 -15.53125 C 25.6875 -10.425781 24.921875 -6.5625 23.390625 -3.9375 C 21.867188 -1.3125 19.117188 0 15.140625 0 L 2.125 0 Z M 13.46875 -29.9375 C 14.28125 -29.9375 14.832031 -30.242188 15.125 -30.859375 C 15.425781 -31.472656 15.578125 -32.335938 15.578125 -33.453125 L 15.578125 -38.265625 C 15.578125 -39.828125 14.890625 -40.609375 13.515625 -40.609375 L 11.5 -40.609375 L 11.5 -29.9375 Z M 12.453125 -8.4375 C 14.953125 -8.4375 16.203125 -9.628906 16.203125 -12.015625 L 16.203125 -17.984375 C 16.203125 -19.441406 15.988281 -20.539062 15.5625 -21.28125 C 15.132812 -22.03125 14.378906 -22.40625 13.296875 -22.40625 L 11.5 -22.40625 L 11.5 -8.484375 Z M 12.453125 -8.4375 "/></g></g></g><g fill="#000000" fill-opacity="1"><g transform="translate(137.846921, 139.499991)"><g><path d="M 13.40625 0.453125 C 9.195312 0.453125 6.179688 -0.703125 4.359375 -3.015625 C 2.535156 -5.328125 1.625 -8.769531 1.625 -13.34375 L 1.625 -29.765625 C 1.625 -33.535156 2.703125 -36.40625 4.859375 -38.375 C 7.015625 -40.34375 10.03125 -41.328125 13.90625 -41.328125 C 21.757812 -41.328125 25.6875 -37.472656 25.6875 -29.765625 L 25.6875 -26.8125 C 25.6875 -23.832031 25.648438 -21.410156 25.578125 -19.546875 L 11.390625 -19.546875 L 11.390625 -11.625 C 11.390625 -10.207031 11.535156 -9.097656 11.828125 -8.296875 C 12.128906 -7.492188 12.765625 -7.09375 13.734375 -7.09375 C 14.484375 -7.09375 15.015625 -7.316406 15.328125 -7.765625 C 15.648438 -8.210938 15.835938 -8.722656 15.890625 -9.296875 C 15.941406 -9.878906 15.96875 -10.726562 15.96875 -11.84375 L 15.96875 -15.8125 L 25.6875 -15.8125 L 25.6875 -13.46875 C 25.6875 -8.695312 24.765625 -5.179688 22.921875 -2.921875 C 21.085938 -0.671875 17.914062 0.453125 13.40625 0.453125 Z M 15.96875 -24.40625 L 15.96875 -29.65625 C 15.96875 -32.601562 15.242188 -34.078125 13.796875 -34.078125 C 12.160156 -34.078125 11.34375 -32.601562 11.34375 -29.65625 L 11.34375 -24.40625 Z M 15.96875 -24.40625 "/></g></g></g><g fill="#000000" fill-opacity="1"><g transform="translate(165.102523, 139.499991)"><g><path d="M 13.40625 0.453125 C 9.195312 0.453125 6.179688 -0.703125 4.359375 -3.015625 C 2.535156 -5.328125 1.625 -8.769531 1.625 -13.34375 L 1.625 -29.765625 C 1.625 -33.535156 2.703125 -36.40625 4.859375 -38.375 C 7.015625 -40.34375 10.03125 -41.328125 13.90625 -41.328125 C 21.757812 -41.328125 25.6875 -37.472656 25.6875 -29.765625 L 25.6875 -26.8125 C 25.6875 -23.832031 25.648438 -21.410156 25.578125 -19.546875 L 11.390625 -19.546875 L 11.390625 -11.625 C 11.390625 -10.207031 11.535156 -9.097656 11.828125 -8.296875 C 12.128906 -7.492188 12.765625 -7.09375 13.734375 -7.09375 C 14.484375 -7.09375 15.015625 -7.316406 15.328125 -7.765625 C 15.648438 -8.210938 15.835938 -8.722656 15.890625 -9.296875 C 15.941406 -9.878906 15.96875 -10.726562 15.96875 -11.84375 L 15.96875 -15.8125 L 25.6875 -15.8125 L 25.6875 -13.46875 C 25.6875 -8.695312 24.765625 -5.179688 22.921875 -2.921875 C 21.085938 -0.671875 17.914062 0.453125 13.40625 0.453125 Z M 15.96875 -24.40625 L 15.96875 -29.65625 C 15.96875 -32.601562 15.242188 -34.078125 13.796875 -34.078125 C 12.160156 -34.078125 11.34375 -32.601562 11.34375 -29.65625 L 11.34375 -24.40625 Z M 15.96875 -24.40625 "/></g></g></g><g fill="#000000" fill-opacity="1"><g transform="translate(192.358125, 139.499991)"><g><path d="M 2.125 -47.984375 L 15.140625 -47.984375 C 18.640625 -47.984375 21.179688 -47.125 22.765625 -45.40625 C 24.347656 -43.695312 25.140625 -40.90625 25.140625 -37.03125 L 25.140625 -34.90625 C 25.140625 -30.332031 23.5 -27.597656 20.21875 -26.703125 C 22.226562 -26.179688 23.640625 -24.96875 24.453125 -23.0625 C 25.273438 -21.164062 25.6875 -18.65625 25.6875 -15.53125 C 25.6875 -10.425781 24.921875 -6.5625 23.390625 -3.9375 C 21.867188 -1.3125 19.117188 0 15.140625 0 L 2.125 0 Z M 13.46875 -29.9375 C 14.28125 -29.9375 14.832031 -30.242188 15.125 -30.859375 C 15.425781 -31.472656 15.578125 -32.335938 15.578125 -33.453125 L 15.578125 -38.265625 C 15.578125 -39.828125 14.890625 -40.609375 13.515625 -40.609375 L 11.5 -40.609375 L 11.5 -29.9375 Z M 12.453125 -8.4375 C 14.953125 -8.4375 16.203125 -9.628906 16.203125 -12.015625 L 16.203125 -17.984375 C 16.203125 -19.441406 15.988281 -20.539062 15.5625 -21.28125 C 15.132812 -22.03125 14.378906 -22.40625 13.296875 -22.40625 L 11.5 -22.40625 L 11.5 -8.484375 Z M 12.453125 -8.4375 "/></g></g></g><g fill="#000000" fill-opacity="1"><g transform="translate(219.111057, 139.499991)"><g><path d="M 13.40625 0.453125 C 9.195312 0.453125 6.179688 -0.703125 4.359375 -3.015625 C 2.535156 -5.328125 1.625 -8.769531 1.625 -13.34375 L 1.625 -29.765625 C 1.625 -33.535156 2.703125 -36.40625 4.859375 -38.375 C 7.015625 -40.34375 10.03125 -41.328125 13.90625 -41.328125 C 21.757812 -41.328125 25.6875 -37.472656 25.6875 -29.765625 L 25.6875 -26.8125 C 25.6875 -23.832031 25.648438 -21.410156 25.578125 -19.546875 L 11.390625 -19.546875 L 11.390625 -11.625 C 11.390625 -10.207031 11.535156 -9.097656 11.828125 -8.296875 C 12.128906 -7.492188 12.765625 -7.09375 13.734375 -7.09375 C 14.484375 -7.09375 15.015625 -7.316406 15.328125 -7.765625 C 15.648438 -8.210938 15.835938 -8.722656 15.890625 -9.296875 C 15.941406 -9.878906 15.96875 -10.726562 15.96875 -11.84375 L 15.96875 -15.8125 L 25.6875 -15.8125 L 25.6875 -13.46875 C 25.6875 -8.695312 24.765625 -5.179688 22.921875 -2.921875 C 21.085938 -0.671875 17.914062 0.453125 13.40625 0.453125 Z M 15.96875 -24.40625 L 15.96875 -29.65625 C 15.96875 -32.601562 15.242188 -34.078125 13.796875 -34.078125 C 12.160156 -34.078125 11.34375 -32.601562 11.34375 -29.65625 L 11.34375 -24.40625 Z M 15.96875 -24.40625 "/></g></g></g><g fill="#000000" fill-opacity="1"><g transform="translate(246.366659, 139.499991)"><g><path d="M 13.40625 0.453125 C 9.195312 0.453125 6.179688 -0.703125 4.359375 -3.015625 C 2.535156 -5.328125 1.625 -8.769531 1.625 -13.34375 L 1.625 -29.765625 C 1.625 -33.535156 2.703125 -36.40625 4.859375 -38.375 C 7.015625 -40.34375 10.03125 -41.328125 13.90625 -41.328125 C 21.757812 -41.328125 25.6875 -37.472656 25.6875 -29.765625 L 25.6875 -26.8125 C 25.6875 -23.832031 25.648438 -21.410156 25.578125 -19.546875 L 11.390625 -19.546875 L 11.390625 -11.625 C 11.390625 -10.207031 11.535156 -9.097656 11.828125 -8.296875 C 12.128906 -7.492188 12.765625 -7.09375 13.734375 -7.09375 C 14.484375 -7.09375 15.015625 -7.316406 15.328125 -7.765625 C 15.648438 -8.210938 15.835938 -8.722656 15.890625 -9.296875 C 15.941406 -9.878906 15.96875 -10.726562 15.96875 -11.84375 L 15.96875 -15.8125 L 25.6875 -15.8125 L 25.6875 -13.46875 C 25.6875 -8.695312 24.765625 -5.179688 22.921875 -2.921875 C 21.085938 -0.671875 17.914062 0.453125 13.40625 0.453125 Z M 15.96875 -24.40625 L 15.96875 -29.65625 C 15.96875 -32.601562 15.242188 -34.078125 13.796875 -34.078125 C 12.160156 -34.078125 11.34375 -32.601562 11.34375 -29.65625 L 11.34375 -24.40625 Z M 15.96875 -24.40625 "/></g></g></g><g fill="#000000" fill-opacity="1"><g transform="translate(273.622261, 139.499991)"><g><path d="M 13.515625 0.453125 C 9.160156 0.453125 6.015625 -0.625 4.078125 -2.78125 C 2.140625 -4.945312 1.171875 -8.429688 1.171875 -13.234375 L 1.171875 -17.9375 L 10.609375 -17.9375 L 10.609375 -11.953125 C 10.609375 -9.566406 11.375 -8.375 12.90625 -8.375 C 13.757812 -8.375 14.351562 -8.625 14.6875 -9.125 C 15.019531 -9.632812 15.1875 -10.484375 15.1875 -11.671875 C 15.1875 -13.234375 15 -14.523438 14.625 -15.546875 C 14.257812 -16.578125 13.785156 -17.4375 13.203125 -18.125 C 12.628906 -18.8125 11.597656 -19.882812 10.109375 -21.34375 L 5.984375 -25.46875 C 2.773438 -28.59375 1.171875 -32.054688 1.171875 -35.859375 C 1.171875 -39.953125 2.109375 -43.070312 3.984375 -45.21875 C 5.867188 -47.363281 8.617188 -48.4375 12.234375 -48.4375 C 16.554688 -48.4375 19.664062 -47.289062 21.5625 -45 C 23.457031 -42.707031 24.40625 -39.117188 24.40625 -34.234375 L 14.640625 -34.234375 L 14.578125 -37.53125 C 14.578125 -38.164062 14.398438 -38.671875 14.046875 -39.046875 C 13.691406 -39.421875 13.195312 -39.609375 12.5625 -39.609375 C 11.820312 -39.609375 11.265625 -39.398438 10.890625 -38.984375 C 10.515625 -38.578125 10.328125 -38.019531 10.328125 -37.3125 C 10.328125 -35.75 11.222656 -34.128906 13.015625 -32.453125 L 18.59375 -27.09375 C 19.90625 -25.820312 20.988281 -24.617188 21.84375 -23.484375 C 22.695312 -22.347656 23.382812 -21.007812 23.90625 -19.46875 C 24.425781 -17.925781 24.6875 -16.09375 24.6875 -13.96875 C 24.6875 -9.238281 23.820312 -5.648438 22.09375 -3.203125 C 20.363281 -0.765625 17.503906 0.453125 13.515625 0.453125 Z M 13.515625 0.453125 "/></g></g></g><g fill="#000000" fill-opacity="1"><g transform="translate(299.369863, 139.499991)"><g><path d="M 13.859375 0.453125 C 5.703125 0.453125 1.625 -3.773438 1.625 -12.234375 L 1.625 -28.65625 C 1.625 -32.53125 2.710938 -35.609375 4.890625 -37.890625 C 7.066406 -40.179688 10.054688 -41.328125 13.859375 -41.328125 C 17.648438 -41.328125 20.632812 -40.179688 22.8125 -37.890625 C 25 -35.609375 26.09375 -32.53125 26.09375 -28.65625 L 26.09375 -12.234375 C 26.09375 -3.773438 22.015625 0.453125 13.859375 0.453125 Z M 13.859375 -7.09375 C 14.640625 -7.09375 15.210938 -7.367188 15.578125 -7.921875 C 15.953125 -8.484375 16.140625 -9.25 16.140625 -10.21875 L 16.140625 -30.21875 C 16.140625 -32.601562 15.378906 -33.796875 13.859375 -33.796875 C 12.328125 -33.796875 11.5625 -32.601562 11.5625 -30.21875 L 11.5625 -10.21875 C 11.5625 -9.25 11.75 -8.484375 12.125 -7.921875 C 12.5 -7.367188 13.078125 -7.09375 13.859375 -7.09375 Z M 13.859375 -7.09375 "/></g></g></g><g fill="#000000" fill-opacity="1"><g transform="translate(327.128124, 139.499991)"><g><path d="M 2.84375 -31.671875 L 1.109375 -31.671875 L 1.171875 -39.09375 L 2.84375 -39.09375 L 2.84375 -41.890625 C 2.84375 -46.285156 5.039062 -48.484375 9.4375 -48.484375 C 11.519531 -48.484375 13.195312 -48.222656 14.46875 -47.703125 L 14.46875 -41.671875 C 14.09375 -41.785156 13.796875 -41.84375 13.578125 -41.84375 C 13.054688 -41.84375 12.71875 -41.65625 12.5625 -41.28125 C 12.414062 -40.90625 12.34375 -40.347656 12.34375 -39.609375 L 12.34375 -39.09375 L 14.46875 -39.09375 L 14.46875 -31.5625 L 12.5625 -31.5625 L 12.5625 0 L 2.84375 0 Z M 2.84375 -31.671875 "/></g></g></g><g fill="#000000" fill-opacity="1"><g transform="translate(342.766566, 139.499991)"><g><path d="M 10.390625 0.453125 C 7.816406 0.453125 6.046875 -0.0859375 5.078125 -1.171875 C 4.109375 -2.253906 3.625 -3.988281 3.625 -6.375 L 3.625 -31.890625 L 0.890625 -31.890625 L 0.890625 -39.328125 L 3.625 -39.328125 L 3.625 -47.984375 L 13.125 -47.984375 L 13.125 -39.328125 L 15.921875 -39.328125 L 15.921875 -31.890625 L 13.125 -31.890625 L 13.125 -8.9375 C 13.125 -8.226562 13.179688 -7.707031 13.296875 -7.375 C 13.410156 -7.039062 13.707031 -6.875 14.1875 -6.875 C 14.5625 -6.875 14.914062 -6.890625 15.25 -6.921875 C 15.582031 -6.960938 15.804688 -6.984375 15.921875 -6.984375 L 15.921875 -0.28125 C 15.359375 -0.132812 14.546875 0.0195312 13.484375 0.1875 C 12.421875 0.363281 11.390625 0.453125 10.390625 0.453125 Z M 10.390625 0.453125 "/></g></g></g></svg>